<?xml version="1.0" encoding="UTF-8" standalone="no"?>
<!-- Generator: Adobe Illustrator 21.1.0, SVG Export Plug-In . SVG Version: 6.00 Build 0)  -->

<svg
   version="1.1"
   id="svg10"
   inkscape:version="1.2.1 (9c6d41e4, 2022-07-14)"
   sodipodi:docname="roblox kopie.svg"
   x="0px"
   y="0px"
   viewBox="0 0 302.7 302.7"
   style="enable-background:new 0 0 302.7 302.7;"
   xml:space="preserve"
   xmlns:inkscape="http://www.inkscape.org/namespaces/inkscape"
   xmlns:sodipodi="http://sodipodi.sourceforge.net/DTD/sodipodi-0.dtd"
   xmlns="http://www.w3.org/2000/svg"
   xmlns:svg="http://www.w3.org/2000/svg"><defs
   id="defs14" />
<style
   type="text/css"
   id="style9">
	.st0{fill:#FFFFFF;}
</style>
<sodipodi:namedview
   bordercolor="#666666"
   borderopacity="1"
   gridtolerance="10"
   guidetolerance="10"
   id="namedview12"
   inkscape:current-layer="svg10"
   inkscape:cx="234.86795"
   inkscape:cy="66.391243"
   inkscape:pageopacity="0"
   inkscape:pageshadow="2"
   inkscape:window-height="773"
   inkscape:window-maximized="0"
   inkscape:window-width="1440"
   inkscape:window-x="0"
   inkscape:window-y="25"
   inkscape:zoom="0.70039357"
   objecttolerance="10"
   pagecolor="#ffffff"
   showgrid="false"
   inkscape:showpageshadow="2"
   inkscape:pagecheckerboard="0"
   inkscape:deskcolor="#d1d1d1">
	</sodipodi:namedview>
<path
   id="path20"
   inkscape:connector-curvature="0"
   class="st0"
   d="M120.5,271.7c-110.9-28.6-120-31-119.9-31.5  C0.7,239.6,62.1,0.5,62.2,0.4c0,0,54,13.8,119.9,30.8s120,30.8,120.1,30.8c0.2,0,0.2,0.4,0.1,0.9c-0.2,1.5-61.5,239.3-61.7,239.5  C240.6,302.5,186.5,288.7,120.5,271.7z M174.9,158c3.2-12.6,5.9-23.1,6-23.4c0.1-0.5-2.3-1.2-23.2-6.6c-12.8-3.3-23.5-5.9-23.6-5.8  c-0.3,0.3-12.1,46.6-12,46.7c0.2,0.2,46.7,12.2,46.8,12.1C168.9,180.9,171.6,170.6,174.9,158L174.9,158z"
   style="fill:#800080;fill-opacity:1" />
</svg>
